<svg version="1.1" viewBox="0 0 640 400" xmlns="http://www.w3.org/2000/svg" xmlns:xlink="http://www.w3.org/1999/xlink" xmlns:svgjs="http://svgjs.dev/svgjs" matcher="0.10880043975056697">
    <g viewBox="0 0 640 400" matcher="0.10880043975056697">
        <g matcher="0.10880043975056697">
            <g matcher="0.10880043975056697">
                <g matcher="0.10880043975056697">
                    <svg viewBox="0 0 640 400" data-background-color="#ffffff" preserveAspectRatio="xMidYMid meet" height="400" width="640" xmlns="http://www.w3.org/2000/svg" xmlns:xlink="http://www.w3.org/1999/xlink">
                        <rect width="640" height="400" x="0" y="0" opacity="0" fill="#ffffff" data-fill-palette-color="background" id="background"></rect><g id="tight-bounds" transform="matrix(1,0,0,1,122.24000000000001,76.4)">
                        <svg viewBox="0 0 395.52 247.2" height="247.2" width="395.52">
                            <g>
                                <svg>
                                </svg>
                            </g>
                            <g>
                                <svg viewBox="0 0 395.52 247.2" height="247.2" width="395.52">
                                    <g transform="matrix(1,0,0,1,75.54432000000001,49.60877358692913)">
                                        <svg viewBox="0 0 244.43135999999996 147.98245282614172" height="147.98245282614172" width="244.43135999999996">
                                            <g>
                                                <svg viewBox="0 0 244.43135999999996 147.98245282614172" height="147.98245282614172" width="244.43135999999996">
                                                    <g>
                                                        <svg viewBox="0 0 244.43136 147.98245282614175" height="147.98245282614172" width="244.43135999999996">
                                                            <g>
                                                                <svg viewBox="0 0 244.43136 147.98245282614175" height="147.98245282614175" width="244.43136">
                                                                    <g id="textblocktransform">
                                                                        <svg viewBox="0 0 244.43136 147.98245282614175" height="147.98245282614175" width="244.43136" id="textblock">
                                                                            <g>
                                                                                <svg viewBox="0 0 244.43136 88.8354219377466" height="88.8354219377466" width="244.43136">
                                                                                    <g transform="matrix(1,0,0,1,0,0)">
                                                                                        <svg width="244.43136" viewBox="1.5 -35 114.04000091552734 41.45000076293945" height="88.8354219377466" data-palette-color="#3e5c76">
                                                                                            <path d="M18-35L18-35Q23.9-35 27.73-30.5 31.55-26 31.55-19.05L31.55-19.05Q31.55-10.95 26.55-5.05L26.55-5.05 33.15 2.8 28.2 6.45 22.45-1.55Q18.95 0.55 15.05 0.55L15.05 0.55Q9.3 0.55 5.4-4.08 1.5-8.7 1.5-15.5L1.5-15.5Q1.5-24 6.15-29.5 10.8-35 18-35ZM24.75-16.25L24.75-16.25Q24.75-28.9 16.45-28.9L16.45-28.9Q12.65-28.9 10.48-26.08 8.3-23.25 8.3-17.63 8.3-12 10.63-8.38 12.95-4.75 17-4.75L17-4.75Q18.5-4.75 19.8-5.35L19.8-5.35 13.85-13.7 17.3-16.1 23.3-8.95Q24.75-12 24.75-16.25ZM46.95-13.3L46.95-13.3 44.1-13.3 44.1-13 44.7 0 38 0 38.6-12.15 38-34.5 48.85-34.5Q53.65-34.5 56.5-31.9 59.35-29.3 59.35-25L59.35-25Q59.35-21.75 57.67-19.07 56-16.4 53.15-14.85L53.15-14.85 61.85-2.55 55.8 0.55 48-13.35Q47.65-13.3 46.95-13.3ZM47.05-29.45L47.05-29.45 44.6-29.45 44.25-18.15 47.65-18.15Q50.15-18.15 51.52-19.8 52.9-21.45 52.9-24.5L52.9-24.5Q52.9-29.45 47.05-29.45ZM71.8-29.45L62.95-28.75 63.5-34.5 87.25-34.5 86.7-28.75 78-29.5 77.8-13 78.4 0 71.4 0 72-12.15 71.8-29.45ZM97.69-27.2L101.39-19.75 101.99-19.75 105.69-26.55 109.44-34.8 115.54-33.9 110.94-25.55 104.44-12.85 104.99 0 97.99 0 98.49-12 92.19-24.8 87.39-33.55 94.44-34.8 97.69-27.2Z" opacity="1" transform="matrix(1,0,0,1,0,0)" fill="#3e5c76" class="wordmark-text-0" data-fill-palette-color="primary" id="text-0">

                                                                                            </path>
                                                                                        </svg>
                                                                                    </g>
                                                                                </svg>
                                                                            </g>
                                                                            <g transform="matrix(1,0,0,1,0,109.80733300712207)">
                                                                                <svg viewBox="0 0 244.43136 38.17511981901969" height="38.17511981901969" width="244.43136">
                                                                                    <g transform="matrix(1,0,0,1,0,0)">
                                                                                        <svg width="244.43136" viewBox="3.490000009536743 -35.5 291.3500061035156 45.51000213623047" height="38.17511981901969" data-palette-color="#0d1321">
                                                                                            <path d="M23.19-8.11L23.19-8.11Q23.19-6.4 22.58-4.88 21.97-3.37 20.9-2.22 19.82-1.07 18.37-0.35 16.92 0.37 15.26 0.49L15.26 0.49 18.46 7.69 15.31 7.69 12.11 0.49Q10.33 0.49 8.75-0.18 7.18-0.85 6.01-2.03 4.83-3.2 4.16-4.76 3.49-6.32 3.49-8.11L3.49-8.11 3.49-26.9Q3.49-28.69 4.16-30.25 4.83-31.81 6.01-32.98 7.18-34.16 8.75-34.83 10.33-35.5 12.11-35.5L12.11-35.5 14.6-35.5Q16.38-35.5 17.94-34.83 19.51-34.16 20.68-32.98 21.85-31.81 22.52-30.25 23.19-28.69 23.19-26.9L23.19-26.9 23.19-8.11ZM20.04-8.11L20.04-26.9Q20.04-28.08 19.6-29.09 19.17-30.1 18.41-30.86 17.65-31.62 16.64-32.06 15.63-32.5 14.45-32.5L14.45-32.5 12.26-32.5Q11.08-32.5 10.07-32.06 9.06-31.62 8.29-30.86 7.52-30.1 7.08-29.09 6.64-28.08 6.64-26.9L6.64-26.9 6.64-8.11Q6.64-6.93 7.08-5.92 7.52-4.91 8.29-4.14 9.06-3.37 10.07-2.93 11.08-2.49 12.26-2.49L12.26-2.49 14.45-2.49Q15.63-2.49 16.64-2.93 17.65-3.37 18.41-4.14 19.17-4.91 19.6-5.92 20.04-6.93 20.04-8.11L20.04-8.11ZM50.8 0L47.17 0 37.67-14.94 33.35-14.94 33.35 0 30.2 0 30.2-35.01 41.31-35.01Q43.09-35.01 44.65-34.34 46.21-33.67 47.39-32.5 48.56-31.32 49.23-29.75 49.9-28.17 49.9-26.39L49.9-26.39 49.9-23.56Q49.9-21.78 49.23-20.2 48.56-18.63 47.39-17.46 46.21-16.28 44.65-15.61 43.09-14.94 41.31-14.94L41.31-14.94 50.8 0ZM46.75-23.56L46.75-26.39Q46.75-27.56 46.31-28.58 45.87-29.59 45.11-30.36 44.36-31.13 43.34-31.57 42.33-32.01 41.16-32.01L41.16-32.01 33.35-32.01 33.35-17.94 41.16-17.94Q42.33-17.94 43.34-18.38 44.36-18.82 45.11-19.59 45.87-20.36 46.31-21.37 46.75-22.39 46.75-23.56L46.75-23.56ZM87.49-8.11L87.49-8.11Q87.49-6.32 86.82-4.76 86.15-3.2 84.98-2.03 83.81-0.85 82.24-0.18 80.68 0.49 78.9 0.49L78.9 0.49 76.41 0.49Q74.63 0.49 73.05-0.18 71.48-0.85 70.31-2.03 69.13-3.2 68.46-4.76 67.79-6.32 67.79-8.11L67.79-8.11 67.79-26.9Q67.79-28.69 68.46-30.25 69.13-31.81 70.31-32.98 71.48-34.16 73.05-34.83 74.63-35.5 76.41-35.5L76.41-35.5 78.9-35.5Q80.68-35.5 82.24-34.83 83.81-34.16 84.98-32.98 86.15-31.81 86.82-30.25 87.49-28.69 87.49-26.9L87.49-26.9 87.49-25.49 84.34-25 84.34-26.9Q84.34-28.08 83.9-29.09 83.46-30.1 82.71-30.86 81.95-31.62 80.94-32.06 79.92-32.5 78.75-32.5L78.75-32.5 76.56-32.5Q75.38-32.5 74.37-32.06 73.36-31.62 72.59-30.86 71.82-30.1 71.38-29.09 70.94-28.08 70.94-26.9L70.94-26.9 70.94-8.11Q70.94-6.93 71.38-5.92 71.82-4.91 72.59-4.14 73.36-3.37 74.37-2.93 75.38-2.49 76.56-2.49L76.56-2.49 78.75-2.49Q79.92-2.49 80.94-2.93 81.95-3.37 82.71-4.14 83.46-4.91 83.9-5.92 84.34-6.93 84.34-8.11L84.34-8.11 84.34-10.01 87.49-9.5 87.49-8.11ZM110.2-6.86L110.2-6.86Q110.2-5.35 109.62-4 109.05-2.66 108.05-1.66 107.05-0.66 105.7-0.09 104.36 0.49 102.85 0.49L102.85 0.49 100.84 0.49Q99.33 0.49 97.99-0.09 96.65-0.66 95.64-1.66 94.64-2.66 94.07-4 93.5-5.35 93.5-6.86L93.5-6.86 93.5-18.14Q93.5-19.65 94.07-21 94.64-22.34 95.64-23.34 96.65-24.34 97.99-24.91 99.33-25.49 100.84-25.49L100.84-25.49 102.85-25.49Q104.36-25.49 105.7-24.91 107.05-24.34 108.05-23.34 109.05-22.34 109.62-21 110.2-19.65 110.2-18.14L110.2-18.14 110.2-6.86ZM107.19-6.69L107.19-18.31Q107.19-19.21 106.85-20.01 106.51-20.8 105.92-21.39 105.34-21.97 104.54-22.31 103.75-22.66 102.85-22.66L102.85-22.66 100.84-22.66Q99.94-22.66 99.15-22.31 98.35-21.97 97.77-21.39 97.18-20.8 96.84-20.01 96.5-19.21 96.5-18.31L96.5-18.31 96.5-6.69Q96.5-5.79 96.84-4.99 97.18-4.2 97.77-3.61 98.35-3.03 99.15-2.69 99.94-2.34 100.84-2.34L100.84-2.34 102.85-2.34Q103.75-2.34 104.54-2.69 105.34-3.03 105.92-3.61 106.51-4.2 106.85-4.99 107.19-5.79 107.19-6.69L107.19-6.69ZM132.9 0L131.9 0 130.24-2.54Q129.21-1.15 127.67-0.33 126.13 0.49 124.3 0.49L124.3 0.49 123.55 0.49Q122.03 0.49 120.69-0.09 119.35-0.66 118.35-1.66 117.35-2.66 116.77-4 116.2-5.35 116.2-6.86L116.2-6.86 116.2-18.14Q116.2-19.65 116.77-21 117.35-22.34 118.35-23.34 119.35-24.34 120.69-24.91 122.03-25.49 123.55-25.49L123.55-25.49 124.3-25.49Q125.99-25.49 127.43-24.8 128.87-24.12 129.89-22.9L129.89-22.9 129.89-35.01 132.9-35.01 132.9 0ZM129.89-6.69L129.89-18.31Q129.89-19.21 129.55-20.01 129.21-20.8 128.63-21.39 128.04-21.97 127.25-22.31 126.45-22.66 125.55-22.66L125.55-22.66 123.55-22.66Q122.64-22.66 121.85-22.31 121.06-21.97 120.47-21.39 119.88-20.8 119.54-20.01 119.2-19.21 119.2-18.31L119.2-18.31 119.2-6.69Q119.2-5.79 119.54-4.99 119.88-4.2 120.47-3.61 121.06-3.03 121.85-2.69 122.64-2.34 123.55-2.34L123.55-2.34 125.55-2.34Q126.45-2.34 127.25-2.69 128.04-3.03 128.63-3.61 129.21-4.2 129.55-4.99 129.89-5.79 129.89-6.69L129.89-6.69ZM155.6-6.86L155.6-6.86Q155.6-5.35 155.03-4 154.45-2.66 153.45-1.66 152.45-0.66 151.11-0.09 149.77 0.49 148.25 0.49L148.25 0.49 146.25 0.49Q144.74 0.49 143.39-0.09 142.05-0.66 141.05-1.66 140.05-2.66 139.47-4 138.9-5.35 138.9-6.86L138.9-6.86 138.9-18.14Q138.9-19.65 139.47-21 140.05-22.34 141.05-23.34 142.05-24.34 143.39-24.91 144.74-25.49 146.25-25.49L146.25-25.49 148.25-25.49Q149.77-25.49 151.11-24.91 152.45-24.34 153.45-23.34 154.45-22.34 155.03-21 155.6-19.65 155.6-18.14L155.6-18.14 155.6-12.26 141.9-12.26 141.9-6.69Q141.9-5.79 142.25-4.99 142.59-4.2 143.17-3.61 143.76-3.03 144.55-2.69 145.35-2.34 146.25-2.34L146.25-2.34 148.25-2.34Q149.15-2.34 149.95-2.69 150.74-3.03 151.33-3.61 151.91-4.2 152.26-4.99 152.6-5.79 152.6-6.69L152.6-6.69 152.6-8.35 155.6-7.86 155.6-6.86ZM152.6-14.6L152.6-18.31Q152.6-19.21 152.26-20.01 151.91-20.8 151.33-21.39 150.74-21.97 149.95-22.31 149.15-22.66 148.25-22.66L148.25-22.66 146.25-22.66Q145.35-22.66 144.55-22.31 143.76-21.97 143.17-21.39 142.59-20.8 142.25-20.01 141.9-19.21 141.9-18.31L141.9-18.31 141.9-14.6 152.6-14.6ZM178.79-6.35L178.79-6.35Q178.79-4.83 178.18-3.58 177.57-2.32 176.52-1.42 175.47-0.51 174.09-0.01 172.71 0.49 171.2 0.49L171.2 0.49 169.2 0.49Q167.68 0.49 166.3-0.09 164.92-0.66 163.89-1.66 162.85-2.66 162.23-4 161.6-5.35 161.6-6.86L161.6-6.86 161.6-7.86 164.61-8.35 164.61-6.69Q164.61-5.79 164.98-4.99 165.36-4.2 166-3.61 166.63-3.03 167.46-2.69 168.29-2.34 169.2-2.34L169.2-2.34 171.2-2.34Q172.1-2.34 172.93-2.61 173.76-2.88 174.41-3.38 175.06-3.88 175.43-4.59 175.81-5.3 175.81-6.2L175.81-6.2Q175.81-7.54 175.23-8.4 174.64-9.25 173.68-9.83 172.71-10.4 171.48-10.78 170.25-11.16 168.95-11.54 167.66-11.91 166.43-12.4 165.19-12.89 164.23-13.68 163.26-14.48 162.68-15.67 162.09-16.87 162.09-18.65L162.09-18.65Q162.09-20.17 162.68-21.42 163.26-22.68 164.26-23.58 165.27-24.49 166.6-24.99 167.93-25.49 169.44-25.49L169.44-25.49 171.2-25.49Q172.71-25.49 174.05-24.91 175.4-24.34 176.4-23.34 177.4-22.34 177.97-21 178.55-19.65 178.55-18.14L178.55-18.14 178.55-18.04 175.54-17.55 175.54-18.31Q175.54-19.21 175.2-20.01 174.86-20.8 174.27-21.39 173.69-21.97 172.9-22.31 172.1-22.66 171.2-22.66L171.2-22.66 169.44-22.66Q168.54-22.66 167.74-22.39 166.95-22.12 166.36-21.62 165.78-21.12 165.44-20.41 165.09-19.7 165.09-18.8L165.09-18.8Q165.09-17.5 165.68-16.69 166.27-15.87 167.23-15.31 168.2-14.75 169.43-14.37 170.66-13.99 171.94-13.59 173.22-13.18 174.46-12.67 175.69-12.16 176.65-11.35 177.62-10.55 178.21-9.34 178.79-8.13 178.79-6.35ZM188.8-3.76L186.31 7.01 185.04 7.01 185.04-3.76 188.8-3.76ZM227.49 0L207.79 0 207.79-35.01 227.49-35.01 227.49-32.01 210.94-32.01 210.94-18.99 224.34-18.99 224.34-15.99 210.94-15.99 210.94-3 227.49-3 227.49 0ZM249.19 0L248.19 0 246.53-2.49Q245.5-1.15 243.97-0.33 242.43 0.49 240.6 0.49L240.6 0.49 239.84 0.49Q238.33 0.49 236.98-0.09 235.64-0.66 234.64-1.66 233.64-2.66 233.07-4 232.49-5.35 232.49-6.86L232.49-6.86 232.49-7.1Q232.49-8.62 233.07-9.96 233.64-11.3 234.64-12.3 235.64-13.31 236.98-13.88 238.33-14.45 239.84-14.45L239.84-14.45 246.19-14.45 246.19-18.31Q246.19-19.21 245.85-20.01 245.5-20.8 244.92-21.39 244.33-21.97 243.54-22.31 242.75-22.66 241.84-22.66L241.84-22.66 240.08-22.66Q239.18-22.66 238.39-22.31 237.59-21.97 237.01-21.39 236.42-20.8 236.08-20.01 235.74-19.21 235.74-18.31L235.74-18.31 235.74-17.41 232.74-17.9 232.74-18.14Q232.74-19.65 233.31-21 233.88-22.34 234.88-23.34 235.89-24.34 237.23-24.91 238.57-25.49 240.08-25.49L240.08-25.49 241.84-25.49Q243.36-25.49 244.7-24.91 246.04-24.34 247.04-23.34 248.04-22.34 248.62-21 249.19-19.65 249.19-18.14L249.19-18.14 249.19 0ZM246.19-6.69L246.19-12.11 239.84-12.11Q238.94-12.11 238.14-11.77 237.35-11.43 236.76-10.83 236.18-10.23 235.84-9.44 235.49-8.64 235.49-7.74L235.49-7.74 235.49-6.69Q235.49-5.79 235.84-4.99 236.18-4.2 236.76-3.61 237.35-3.03 238.14-2.69 238.94-2.34 239.84-2.34L239.84-2.34 241.84-2.34Q242.75-2.34 243.54-2.69 244.33-3.03 244.92-3.61 245.5-4.2 245.85-4.99 246.19-5.79 246.19-6.69L246.19-6.69ZM272.38-6.35L272.38-6.35Q272.38-4.83 271.77-3.58 271.16-2.32 270.11-1.42 269.06-0.51 267.68-0.01 266.3 0.49 264.79 0.49L264.79 0.49 262.79 0.49Q261.27 0.49 259.89-0.09 258.51-0.66 257.48-1.66 256.44-2.66 255.82-4 255.19-5.35 255.19-6.86L255.19-6.86 255.19-7.86 258.2-8.35 258.2-6.69Q258.2-5.79 258.58-4.99 258.95-4.2 259.59-3.61 260.22-3.03 261.05-2.69 261.88-2.34 262.79-2.34L262.79-2.34 264.79-2.34Q265.69-2.34 266.52-2.61 267.35-2.88 268-3.38 268.65-3.88 269.03-4.59 269.4-5.3 269.4-6.2L269.4-6.2Q269.4-7.54 268.82-8.4 268.23-9.25 267.27-9.83 266.3-10.4 265.07-10.78 263.84-11.16 262.54-11.54 261.25-11.91 260.02-12.4 258.78-12.89 257.82-13.68 256.85-14.48 256.27-15.67 255.68-16.87 255.68-18.65L255.68-18.65Q255.68-20.17 256.27-21.42 256.85-22.68 257.86-23.58 258.86-24.49 260.19-24.99 261.52-25.49 263.03-25.49L263.03-25.49 264.79-25.49Q266.3-25.49 267.65-24.91 268.99-24.34 269.99-23.34 270.99-22.34 271.56-21 272.14-19.65 272.14-18.14L272.14-18.14 272.14-18.04 269.14-17.55 269.14-18.31Q269.14-19.21 268.79-20.01 268.45-20.8 267.87-21.39 267.28-21.97 266.49-22.31 265.69-22.66 264.79-22.66L264.79-22.66 263.03-22.66Q262.13-22.66 261.33-22.39 260.54-22.12 259.96-21.62 259.37-21.12 259.03-20.41 258.69-19.7 258.69-18.8L258.69-18.8Q258.69-17.5 259.27-16.69 259.86-15.87 260.82-15.31 261.79-14.75 263.02-14.37 264.25-13.99 265.53-13.59 266.82-13.18 268.05-12.67 269.28-12.16 270.25-11.35 271.21-10.55 271.8-9.34 272.38-8.13 272.38-6.35ZM294.84-25L282.19 10.01 279.29 10.01 283.73-2.15 275.63-25 278.63-25 285.15-6.05 285.25-4.76 285.34-6.05 291.84-25 294.84-25Z" opacity="1" transform="matrix(1,0,0,1,0,0)" fill="#0d1321" class="slogan-text-1" data-fill-palette-color="secondary" id="text-1">

                                                                                            </path>
                                                                                        </svg>
                                                                                    </g>
                                                                                </svg>
                                                                            </g>
                                                                        </svg>
                                                                    </g>
                                                                </svg>
                                                            </g>
                                                        </svg>
                                                    </g>
                                                </svg>
                                            </g>
                                        </svg>
                                    </g>
                                    <g>
                                        <path d="M245.816 0c68.262 0 123.6 55.338 123.6 123.6 0 68.262-55.338 123.6-123.6 123.6-35.593 0-67.673-15.045-90.226-39.123l5.571 0c21.649 21.695 51.584 35.117 84.655 35.117 66.05 0 119.594-53.544 119.594-119.594 0-66.05-53.544-119.594-119.594-119.594-33.07 0-63.005 13.423-84.655 35.117h-5.571c22.553-24.078 54.632-39.123 90.226-39.123z" fill="#3e5c76" stroke="transparent" data-fill-palette-color="tertiary">

                                        </path>
                                    </g>
                                </svg>
                            </g>
                            <defs>

                            </defs>
                        </svg>
                        <rect width="395.52" height="247.2" fill="none" stroke="none" visibility="hidden">

                        </rect>
                    </g>
                    </svg>
                </g>
            </g>
        </g>
    </g>
    <rect width="256.4357414599675" height="100.88193414563247" x="192.79255421834614" y="121.00653201606083" rx="2.5" ry="2.5" fill="transparent" class="logo-element-hover-target">

    </rect>
    <rect width="256.41487245249505" height="50.18917524749622" x="192.79255421834614" y="230.8147391844371" rx="2.5" ry="2.5" fill="transparent" class="logo-element-hover-target">

    </rect>
</svg>